<svg xmlns="http://www.w3.org/2000/svg" xmlns:xlink="http://www.w3.org/1999/xlink" width="15" height="22" viewBox="0 0 15 22">
    <defs>
        <path id="sinjb675ra" d="M46.587 52.938c.537.493 1.175.74 1.913.74s1.367-.255 1.888-.764c.52-.51.78-1.126.78-1.849 0-.723-.26-1.34-.78-1.849-.52-.509-1.15-.764-1.888-.764s-1.367.255-1.888.764c-.52.51-.78 1.126-.78 1.849 0 .723.252 1.347.755 1.873zm-3.423-7.05c1.477-1.445 3.255-2.168 5.336-2.168 2.08 0 3.85.715 5.31 2.144 1.46 1.43 2.19 3.163 2.19 5.201 0 1.019-.26 2.185-.78 3.5s-1.15 2.547-1.888 3.697-1.468 2.227-2.19 3.23c-.72 1.001-1.333 1.798-1.837 2.39l-.805.838c-.201-.23-.47-.534-.805-.912-.336-.378-.94-1.134-1.812-2.268-.873-1.133-1.636-2.234-2.29-3.302-.655-1.069-1.25-2.276-1.788-3.624-.537-1.347-.805-2.53-.805-3.549 0-2.038.721-3.763 2.164-5.176z"/>
    </defs>
    <g fill="none" fill-rule="evenodd">
        <g>
            <g transform="translate(-195 -427) translate(154 384)">
                <use fill="#F650A0" xlink:href="#sinjb675ra"/>
            </g>
        </g>
    </g>
</svg>
